<svg id="Calque_1" data-name="Calque 1" xmlns="http://www.w3.org/2000/svg" viewBox="0 0 864.23 1308.9"><defs><style>.cls-1{fill:#241f20;}</style></defs><title>Plan de travail 1-8</title><path class="cls-1" d="M315.84-13c23.64,13.54,47,26.92,70.35,40.27q91.52,52.29,183.08,104.51c4.7,2.68,6.84,6.11,6.81,11.63q-.26,43.49,0,87c0,5-1.78,7.88-6,10.31Q473.57,296,377.2,351.51q-111.55,64.14-223,128.42c-7,4.05-12.6,4.25-19.74.16Q-71.86,361.76-278.47,244c-7.23-4.12-9.73-8.8-9.58-17.05.49-27.65.22-55.32-.06-83-.05-5.23,1.84-8.14,6.28-10.68Q-157,61.7-32.33-10.11c1.4-.8,3.17-1.17,3.95-3l-158.48-90.55c-31.46-18-62.89-36-94.42-53.86-4.78-2.71-6.8-6.22-6.78-11.65q.19-43.49,0-87c0-5,1.76-7.84,6.05-10.3Q-72.92-386.53,136-506.85c5.55-3.19,10.12-3.11,15.71.1q208.12,119.2,416.44,238c5.6,3.19,8,7,7.93,13.5q-.41,42.73,0,85.47c0,5.17-1.69,8.15-6.17,10.72Q445.74-87.85,321.69-16.44C319.83-15.37,318-14.26,315.84-13ZM-32.1-213.16c29.44,17,58.29,33.56,87,50.39,23.91,14,48.55,26.85,71.63,42.31,4.24,2.84,9,4.87,13.49,7.35a4.49,4.49,0,0,0,4.27.39c5.86-2.64,12.06-4.72,17.53-8,37.41-22.62,75.61-43.85,113.41-65.79,14.74-8.56,29.55-17,44.35-25.51-1-1.88-2.75-2.31-4.14-3.12-41.71-24.16-83.38-48.39-125.2-72.36-13.93-8-27.32-16.88-41.7-24.08-3.21-1.6-5.9-1.76-9.15,0-9.93,5.23-19.59,10.89-29.26,16.57-32,18.76-64.21,37-96.35,55.51C-1.39-230.86-16.49-222.15-32.1-213.16ZM320,187.5c-2.21-1.33-3.72-2.27-5.26-3.16-32.38-18.72-64.7-37.57-97.18-56.11-23.46-13.4-46.28-27.91-70.28-40.37a6.72,6.72,0,0,0-6.91,0c-9.85,5.07-19.42,10.59-29,16.17C65,131,18.35,157.61-28.19,184.4c-1.16.67-2.88.86-3.14,2.74q73,42.23,145.95,84.39c8.15,4.71,15.49,10.75,24.16,14.59,1.76.78,3.25,2.08,5.54,1,5.79-2.77,12.08-4.65,17.51-8,21.82-13.39,44.11-25.95,66.28-38.73C258.48,222.88,288.89,205.42,320,187.5Z" transform="translate(288.11 509.2)"/><path class="cls-1" d="M-17,716c0,21.5-.07,43,.08,64.49,0,3.22-.93,4.44-4.07,5.43-36.31,11.46-73.44,16.39-111.33,12.41-46.11-4.84-80-30-94.22-77.06C-237.2,686-238.27,650-228.11,614.35c13.15-46.07,44.65-73.43,90.77-83.67,39.38-8.74,78.05-4.83,115.62,10.05,3.87,1.53,4.37,2.92,2.74,6.66-5.33,12.17-10.35,24.48-15.24,36.83-1.32,3.32-2.64,3.61-5.77,2.14-21-9.88-43.15-14.6-66.39-12.17-32.09,3.35-53.68,21.06-63.89,51.07s-9,60.79,3.26,90.27c10.06,24.12,29.55,35.53,55.26,36.71,12.19.56,24.26-.88,36.29-2.8,2.63-.42,3.56-1.41,3.54-4.17q-.19-24.25,0-48.49c0-3.11-1.2-3.41-3.78-3.39-14.16.11-28.33-.07-42.49.14-3.39,0-4.08-1-4-4.18.17-13,.21-26,0-39-.06-3.5,1.21-4,4.25-4q48.49.14,97,0c3.26,0,4.12.83,4.1,4.1C-17.07,672.31-17,694.14-17,716Z" transform="translate(288.11 509.2)"/><path class="cls-1" d="M508,715.81c0,21.5-.06,43,.06,64.49,0,3.08-.62,4.52-3.9,5.56-36.48,11.5-73.78,16.54-111.82,12.39-44.84-4.89-76.8-28.08-91.89-71.21a184.4,184.4,0,0,1-3.59-112.52c12.94-46.12,44.52-73.53,90.62-83.8,39.53-8.81,78.39-5,116.06,10.22,3.07,1.24,4.33,2.11,2.68,5.84-5.43,12.3-10.5,24.77-15.38,37.31-1.46,3.75-3,3.65-6.16,2.15-22.52-10.53-46.23-15.43-70.87-11.44-32.69,5.29-52.68,25.72-61.22,56.95-7.09,26-5.84,52.22,2.75,77.72,9.35,27.76,31.32,42.76,60.72,42.86a215.53,215.53,0,0,0,33.29-2.84c2.88-.44,3.74-1.6,3.71-4.53q-.23-24,0-48c0-2.85-.81-3.59-3.61-3.57-14.16.14-28.33,0-42.49.13-3.09,0-4.28-.55-4.22-4,.22-13.16.17-26.33,0-39.49,0-2.78.68-3.64,3.56-3.64q49,.15,98,0c3.25,0,3.76,1,3.75,3.94C507.95,672.15,508,694,508,715.81Z" transform="translate(288.11 509.2)"/><path class="cls-1" d="M12.83,795.46C22.38,768.3,31.69,741.85,41,715.4Q72.86,624.7,104.62,534c1.28-3.66,2.88-4.64,6.61-4.61,20,.21,40,.15,60,0,2.84,0,4.39.58,5.43,3.55Q222.22,662.64,268,792.26c.32.91.56,1.86,1,3.2-19.74,0-39.18,0-58.62,0-3.1,0-2.72-2.47-3.23-4.09-5.66-18.24-11.34-36.47-16.67-54.8-1-3.48-2.48-4.23-5.83-4.22-29,.13-58,.18-87,0-4,0-5.37,1.43-6.39,4.91-5.3,18-10.88,35.91-16.2,53.9-.91,3.07-2,4.47-5.63,4.42C50.76,795.32,32.11,795.46,12.83,795.46ZM175.55,685.29,140.86,572.51c-10.85,38.3-22.37,75.39-33.78,112.78Z" transform="translate(288.11 509.2)"/></svg>