<svg id="Calque_1" data-name="Calque 1" xmlns="http://www.w3.org/2000/svg" viewBox="0 0 1418 1308.81"><defs><style>.cls-1{fill:#7f7f7f;}.cls-2{fill:#dadfde;}</style></defs><title>Plan de travail 1-8 copie</title><path class="cls-1" d="M-147.21,796.35c-2.5,0-5,.1-7.49.1H-566v-2h404.41c2.16,0,4.33-.09,6.49-.14C-152.38,794.66-149.62,794.82-147.21,796.35Z" transform="translate(566 509.22)"/><path class="cls-1" d="M852,796.46q-191.45,0-382.91-.05c-2,0-4.28,1-6-.94l10-1.16c2.33.05,4.66.15,7,.15H852Z" transform="translate(566 509.22)"/><path class="cls-2" d="M316.3-12.89c10.7,6.21,21,12.25,31.38,18.2q37.19,21.34,74.43,42.6,33.13,18.91,66.3,37.75,36.8,21,73.55,42.14c2.88,1.65,5.68,3.51,8.69,4.89,3.91,1.78,5.31,4.94,5.32,8.82.06,30.5,0,61,.08,91.49,0,3.37-1.82,5.16-4.39,6.65-12.51,7.25-25,14.54-37.53,21.74q-35.67,20.49-71.39,40.9-35,20.11-70,40.29-34.78,20-69.54,40.09-32,18.4-64,36.71Q228,437.25,196.91,455.15c-15.85,9.11-31.64,18.33-47.56,27.31-3.68,2.07-7.72,1.56-11.42-.55q-22.09-12.6-44.15-25.24L34.06,422.48l-74-42.36-64-36.65q-37-21.18-74-42.36-32.9-18.81-65.84-37.56c-12.57-7.16-25.12-14.34-37.75-21.37-4.56-2.54-6.51-6.1-6.49-11.33q.17-44,0-88c0-4.07,1.34-6.85,5-8.94q61.49-35.11,122.86-70.41Q-102,30.07-44-3.5c5.15-3,10.34-5.87,16.18-9.18-10.73-6.17-20.74-11.93-30.77-17.67Q-95.79-51.66-133-72.94q-32.9-18.8-65.84-37.55-37-21.14-74-42.34c-.14-.08-.27-.2-.41-.28-17.61-9.71-14.56-6.9-14.68-26.36-.16-25.66,0-51.33-.14-77,0-4.56,1.49-7.5,5.41-9.73Q-244.31-288-206.07-310c25.5-14.67,50.93-29.45,76.43-44.11S-78.57-383.35-53.06-398s50.66-29.25,76-43.84q31.76-18.28,63.59-36.46c16.15-9.26,32.41-18.33,48.37-27.91,5.72-3.43,10.49-4.24,16.55-.71,27.13,15.83,54.46,31.32,81.73,46.91q35.71,20.42,71.44,40.8,36.78,21.05,73.53,42.17c22.08,12.62,44.22,25.13,66.3,37.75q36.8,21,73.54,42.15c17,9.74,34,19.55,51.14,29.1,5,2.77,7,6.44,6.93,12.08q-.24,43.5,0,87c0,4.94-2.06,7.65-6,9.9q-46.29,26.52-92.51,53.16-41.73,24-83.5,47.83-37.42,21.45-74.8,43A37.3,37.3,0,0,0,316.3-12.89ZM-31.9,186.6c1,.7,1.5,1.1,2,1.41q37.16,21.37,74.32,42.73Q91.7,258,138.84,285.51c2.69,1.58,4.71,1.38,7.32.41,11.74-4.35,22.21-11.13,33-17.26,22.53-12.81,44.84-26,67.31-38.91q35-20.14,70.1-40.07c2.86-1.63,2.82-2.83,0-4.43-9.11-5.16-18.16-10.41-27.23-15.64-22.59-13-45.07-26.27-67.8-39.05-24.42-13.73-47.81-29.25-73.08-41.48-3.45-1.67-6.11-1.94-9.65-.09-24.18,12.6-47.35,27-71.06,40.37-23.43,13.25-46.67,26.81-70,40.24ZM-32-213.2c21.9,12.7,43.25,25.11,64.62,37.47q33.87,19.58,67.77,39.11,19.83,11.47,39.59,23.05a5,5,0,0,0,5.14.06c7.21-3.35,14.49-6.44,21.39-10.52,19.73-11.65,39.74-22.8,59.62-34.21q35.23-20.22,70.4-40.53l23.63-13.63-40-23.07c-22.58-13-45.09-26.23-67.77-39.1-21.22-12-41.74-25.3-63.64-36.17-3.55-1.76-6.37-1.83-9.75.11-7.19,4.14-14.79,7.47-21.94,11.78-15.49,9.34-31.41,18-47.11,27Q34.73-251.67-.43-231.35C-10.76-225.4-21.11-219.48-32-213.2Z" transform="translate(566 509.22)"/><path class="cls-2" d="M-147.21,796.35c-2.41-1.54-5.17-1.69-7.89-2-8.52-3.64-17.37-6.45-25.34-11.44-21-13.12-35.29-31.44-43.74-54.55-6.26-17.13-8.95-34.82-10.06-53-1.48-24.2,1-47.66,9.06-70.47a109.38,109.38,0,0,1,21.76-36.59c21-23.62,47.82-35.33,78.54-39.95a207.08,207.08,0,0,1,42.77-1.6c21.15,1.22,41.56,6.45,61.24,14.38,2.41,1,3.68,1.78,2.28,5C-24,558.39-28.91,570.9-33.95,583.38c-1.33,3.29-2.78,4.79-6.68,2.86-14.13-7-29.17-10.43-44.9-12a93.2,93.2,0,0,0-39.69,4.2c-16.8,5.64-29.22,16.66-38.17,31.8-8.67,14.66-12.41,30.58-12.69,47.52-.27,16.34.17,32.57,5.18,48.3,7.85,24.68,25.49,42.84,53.26,45.64,14.1,1.42,27.74-.55,41.54-2.21,3.07-.37,4.18-1.84,4.16-5-.11-15.66-.14-31.33,0-47,0-3.47-1.37-4.14-4.45-4.12-13.5.12-27,0-40.49.12-3.67,0-5.35-.62-5.25-4.87.29-12.49.24-25,0-37.49-.07-3.77,1.13-4.79,4.83-4.78q47.74.2,95.48,0c3.65,0,4.88.91,4.87,4.73q-.19,64.49,0,129c0,4.24-2,5.41-5.35,6.28-9.92,2.57-19.8,5.27-29.7,7.93l-10,1.17c-6.33,1-12.64,2.11-19,2.93-11,1.44-22.18.73-33.27,1.14S-136.2,797.39-147.21,796.35Z" transform="translate(566 509.22)"/><path class="cls-2" d="M473.1,794.3l-10,1.16c-6.33,1-12.64,2.11-19,2.94-11,1.44-22.18.73-33.27,1.14s-22-2.14-33-3.19c-2.39-1.53-5.15-1.68-7.85-2-8.54-3.6-17.38-6.44-25.36-11.42-21-13.1-35.3-31.43-43.76-54.54-6.27-17.13-8.94-34.82-10.07-53-1.51-24.21,1-47.66,9-70.47a109.29,109.29,0,0,1,22.09-37c21-23.43,47.66-35,78.18-39.61a206.71,206.71,0,0,1,42.76-1.61c21.15,1.21,41.56,6.45,61.24,14.37,2.35.95,3.76,1.7,2.34,5-5.37,12.33-10.32,24.85-15.36,37.32-1.31,3.25-2.72,4.87-6.66,2.91-14.13-7-29.17-10.44-44.9-12a93.27,93.27,0,0,0-39.69,4.19C383,584,370.59,595,361.63,610.18c-8.68,14.66-12.48,30.58-12.69,47.52-.2,16,.29,31.8,4.92,47.34,7.44,25,26,44.18,54,46.69,14.11,1.27,27.74-.69,41.53-2.33,2.5-.3,3.71-1.6,3.69-4.34-.09-16-.12-32,0-48,0-3.46-1.77-3.64-4.4-3.63-13.66.06-27.33,0-41,.08-3.21,0-4.83-.54-4.76-4.32.21-12.83.17-25.66,0-38.49,0-3.25,1-4.31,4.27-4.3q48.24.15,96.48,0c3.68,0,4.39,1.39,4.38,4.69q-.13,64.49.05,129c0,4.21-2,5.43-5.31,6.31C492.88,788.95,483,791.65,473.1,794.3Z" transform="translate(566 509.22)"/><path class="cls-2" d="M13,794.55Q26.27,757,39.53,719.37,66.36,643,93.13,566.53c3.79-10.82,7.8-21.56,11.43-32.43,1.11-3.32,2.49-4.77,6.26-4.74,20,.2,40,.17,60,0,3.42,0,5.09,1.19,6.19,4.35q13.4,38.6,27,77.14,28.1,79.92,56.24,159.83c2.82,8,5.84,15.9,8.77,23.84-1,1.35-2.4.89-3.66.89q-26.87,0-53.73,0c-1.26,0-2.71.44-3.62-1-6-19.67-12.07-39.33-17.93-59-.86-2.9-2.61-3-4.86-3-29.47,0-58.94,0-88.41-.05-3,0-4.43,1.07-5.28,3.94-5.76,19.4-11.66,38.75-17.52,58.12-.92,1.38-2.36,1-3.62,1q-27.11,0-54.23,0C15,795.45,13.79,795.75,13,794.55ZM141.19,573.7c-.56.46-.75.54-.79.67C130,610.21,119.37,646,108,681.55c-1.29,4.06.62,3.95,3.48,3.94,20-.05,40-.1,60,0,3.51,0,4.19-.72,3.07-4.13-4-12.31-7.75-24.7-11.57-37.07C155.75,620.9,148.53,597.48,141.19,573.7Z" transform="translate(566 509.22)"/><path class="cls-1" d="M13,794.55c.79,1.21,2,.9,3.16.9q27.11,0,54.23,0c1.27,0,2.71.4,3.62-1l134,0c.91,1.4,2.36,1,3.62,1q26.87,0,53.73,0c1.26,0,2.7.46,3.66-.89l94.46-.1c2.16,0,4.33-.09,6.49-.14,2.7.36,5.45.52,7.85,2-2,0-4,.1-6,.1q-214.1,0-428.21,0c-1.83,0-4,1-5.52-.94l10-1.17Z" transform="translate(566 509.22)"/></svg>